<svg width="2880" height="1541" viewBox="0 0 2880 1541" fill="none" xmlns="http://www.w3.org/2000/svg">
<rect width="2880" height="1541" fill="white"/>
<path d="M1350.09 740H1338.27L1372.45 646.909H1384.09L1418.27 740H1406.45L1378.64 661.636H1377.91L1350.09 740ZM1354.45 703.636H1402.09V713.636H1354.45V703.636ZM1432.77 740V646.909H1464.23C1471.53 646.909 1477.5 648.227 1482.14 650.864C1486.8 653.47 1490.26 657 1492.5 661.455C1494.74 665.909 1495.86 670.879 1495.86 676.364C1495.86 681.848 1494.74 686.833 1492.5 691.318C1490.29 695.803 1486.86 699.379 1482.23 702.045C1477.59 704.682 1471.65 706 1464.41 706H1441.86V696H1464.05C1469.05 696 1473.06 695.136 1476.09 693.409C1479.12 691.682 1481.32 689.348 1482.68 686.409C1484.08 683.439 1484.77 680.091 1484.77 676.364C1484.77 672.636 1484.08 669.303 1482.68 666.364C1481.32 663.424 1479.11 661.121 1476.05 659.455C1472.98 657.758 1468.92 656.909 1463.86 656.909H1444.05V740H1432.77ZM1525.3 646.909V740H1514.02V646.909H1525.3Z" fill="black"/>
</svg>
