<svg width="929" height="541" viewBox="0 0 929 541" fill="none" xmlns="http://www.w3.org/2000/svg">
<rect x="347" y="95" width="86" height="82" rx="5" fill="#FF9DAF"/>
<rect x="284.079" y="177.666" width="52" height="55" rx="5" transform="rotate(42 284.079 177.666)" fill="#7F00AB"/>
<rect x="569.349" y="108" width="122.184" height="104.036" rx="5" transform="rotate(54 569.349 108)" fill="#3E68FF"/>
<rect x="137.937" y="311.968" width="100.914" height="104.036" rx="5" transform="rotate(115 137.937 311.968)" fill="#8BA5FF"/>
<ellipse cx="357.5" cy="323" rx="56.5" ry="55" fill="#FF0000"/>
<path d="M296.971 413.367C300.653 412.712 303.725 416.184 302.626 419.759L276.408 505.058C275.261 508.79 270.471 509.826 267.884 506.902L206.243 437.23C203.656 434.306 205.269 429.678 209.112 428.994L296.971 413.367Z" fill="#FF9B9B"/>
<path d="M1 313C270 344.5 213 409.5 362 313C511 216.5 593 76.5 734 160C846.8 226.8 910.667 81.8333 928.5 1" stroke="black"/>
</svg>
