<svg width="1573" height="932" viewBox="0 0 1573 932" fill="none" xmlns="http://www.w3.org/2000/svg">
<g filter="url(#filter0_f_22_28)">
<path d="M631.846 337.993C633.283 370.764 618.79 393.369 588.366 405.808C557.941 418.246 530.392 417.29 505.717 402.937C481.042 388.585 450.138 383.083 413.006 386.432C375.874 389.781 350.96 374.352 338.263 340.146C325.566 305.94 336.826 279.867 372.041 261.927C407.257 243.986 428.817 218.152 436.723 184.425C444.628 150.697 461.997 144.119 488.828 164.69C515.659 185.262 542.01 198.059 567.883 203.083C593.756 208.106 610.525 223.654 618.191 249.727C625.857 275.801 630.409 305.223 631.846 337.993Z" fill="#A154F2"/>
</g>
<g filter="url(#filter1_f_22_28)">
<path d="M1114.12 288.303C1094.77 246.769 1106.35 236.24 1148.84 256.714C1191.34 277.188 1221.63 286.803 1239.72 285.56C1257.81 284.316 1279.97 287.285 1306.21 294.466C1332.45 301.647 1361.1 320.831 1392.16 352.018C1423.21 383.205 1427.32 417.094 1404.49 453.685C1381.65 490.276 1350.37 513.396 1310.65 523.045C1270.92 532.694 1241.22 518.66 1221.55 480.944C1201.88 443.227 1175.4 424.881 1142.13 425.906C1108.85 426.93 1100.7 414.636 1117.68 389.023C1134.65 363.41 1133.47 329.837 1114.12 288.303Z" fill="#FF7DDB"/>
</g>
<g filter="url(#filter2_f_22_28)">
<path d="M1123.76 391.786C1117.77 422.49 1095.22 438.894 1056.11 441C1017 443.105 986.594 427.753 964.887 394.944C943.181 362.135 944.116 330.817 967.694 300.991C991.272 271.164 1020.56 257.567 1055.55 260.198C1090.54 262.83 1112.15 277.743 1120.39 304.938C1128.62 332.133 1129.74 361.082 1123.76 391.786Z" fill="#FF9D9D"/>
</g>
<g filter="url(#filter3_f_22_28)">
<path d="M826.752 483.103C863.644 518.729 858.747 524.455 812.061 500.28C765.374 476.105 737.297 466.721 727.829 472.129C718.362 477.536 701.874 482.149 678.368 485.966C654.862 489.783 622.703 481.353 581.894 460.678C541.084 440.002 528.678 410.578 544.675 372.408C560.673 334.237 587.117 308.948 624.009 296.543C660.901 284.137 689.142 299.088 708.73 341.394C728.319 383.7 753.458 397.219 784.147 381.95C814.836 366.682 820.386 370.817 800.797 394.356C781.209 417.894 789.86 447.477 826.752 483.103Z" fill="#322540"/>
</g>
<g filter="url(#filter4_f_22_28)">
<path d="M507.885 488.056C523.882 528.136 509.681 546.744 465.28 543.881C420.879 541.018 385.782 541.178 359.991 544.358C334.199 547.539 306.122 544.358 275.759 534.816C245.397 525.273 214.708 505.074 183.692 474.22C152.677 443.365 145.168 407.102 161.165 365.433C177.163 323.763 204.424 293.544 242.948 274.777C281.473 256.009 316.732 259.19 348.727 284.319C380.722 309.449 414.023 323.286 448.629 325.83C483.236 328.375 497.764 346.029 492.214 378.792C486.664 411.556 491.888 447.977 507.885 488.056Z" fill="#8482FF"/>
</g>
<g filter="url(#filter5_f_22_28)">
<path d="M1357.05 666.505C1373.05 706.585 1358.85 725.193 1314.45 722.33C1270.05 719.467 1234.95 719.626 1209.16 722.807C1183.37 725.988 1155.29 722.807 1124.93 713.264C1094.57 703.722 1063.88 683.523 1032.86 652.668C1001.85 621.813 994.337 585.551 1010.33 543.881C1026.33 502.211 1053.59 471.993 1092.12 453.226C1130.64 434.458 1165.9 437.639 1197.9 462.768C1229.89 487.897 1263.19 501.734 1297.8 504.279C1332.41 506.824 1346.93 524.478 1341.38 557.241C1335.83 590.004 1341.06 626.426 1357.05 666.505Z" fill="#97FFBA"/>
</g>
<g filter="url(#filter6_f_22_28)">
<path d="M814.154 685.988C783.918 715.324 769.016 704.318 769.446 652.97C769.876 601.622 764.992 565.414 754.792 544.345C744.593 523.275 734.829 497.79 725.501 467.888C716.172 437.986 709.448 399.517 705.33 352.48C701.211 305.444 712.622 269.651 739.562 245.102C766.503 220.553 795.161 208.666 825.537 209.441C855.913 210.216 878.604 231.825 893.612 274.269C908.62 316.713 929.753 337.397 957.012 336.322C984.272 335.246 1005.42 349.511 1020.46 379.116C1035.49 408.72 1040.46 441.832 1035.36 478.45C1030.26 515.067 1025.74 553.692 1021.8 594.324C1017.85 634.957 997.13 646.161 959.624 627.937C922.117 609.713 896.055 607.498 881.436 621.293C866.816 635.088 844.389 656.653 814.154 685.988Z" fill="#7F6699"/>
</g>
<g filter="url(#filter7_f_22_28)">
<path d="M710.074 590.37C743.048 616.772 738.151 626.314 695.382 618.998C652.614 611.682 627.149 612.795 618.987 622.338C610.825 631.881 599.724 644.127 585.686 659.078C571.647 674.028 548.794 690.25 517.125 707.745C485.457 725.24 459.665 723.332 439.75 702.02C419.835 680.708 408.571 656.215 405.96 628.541C403.348 600.867 419.998 578.601 455.911 561.742C491.823 544.883 501.291 524.843 484.314 501.623C467.338 478.402 464.726 457.09 476.479 437.687C488.232 418.283 505.535 407.786 528.389 406.196C551.242 404.605 575.239 398.243 600.377 387.11C625.516 375.977 634.005 394.108 625.843 441.504C617.681 488.899 616.212 515.301 621.435 520.708C626.659 526.116 634.494 532.478 644.942 539.794C655.389 547.11 677.1 563.969 710.074 590.37Z" fill="#FF7D95"/>
</g>
<defs>
<filter id="filter0_f_22_28" x="180.216" y="0" width="604.727" height="567.47" filterUnits="userSpaceOnUse" color-interpolation-filters="sRGB">
<feFlood flood-opacity="0" result="BackgroundImageFix"/>
<feBlend mode="normal" in="SourceGraphic" in2="BackgroundImageFix" result="shape"/>
<feGaussianBlur stdDeviation="76.5" result="effect1_foregroundBlur_22_28"/>
</filter>
<filter id="filter1_f_22_28" x="952.042" y="93.5733" width="619.959" height="585.42" filterUnits="userSpaceOnUse" color-interpolation-filters="sRGB">
<feFlood flood-opacity="0" result="BackgroundImageFix"/>
<feBlend mode="normal" in="SourceGraphic" in2="BackgroundImageFix" result="shape"/>
<feGaussianBlur stdDeviation="76.5" result="effect1_foregroundBlur_22_28"/>
</filter>
<filter id="filter2_f_22_28" x="796.28" y="106.878" width="484.257" height="487.312" filterUnits="userSpaceOnUse" color-interpolation-filters="sRGB">
<feFlood flood-opacity="0" result="BackgroundImageFix"/>
<feBlend mode="normal" in="SourceGraphic" in2="BackgroundImageFix" result="shape"/>
<feGaussianBlur stdDeviation="76.5" result="effect1_foregroundBlur_22_28"/>
</filter>
<filter id="filter3_f_22_28" x="384.918" y="139.324" width="619.261" height="528.615" filterUnits="userSpaceOnUse" color-interpolation-filters="sRGB">
<feFlood flood-opacity="0" result="BackgroundImageFix"/>
<feBlend mode="normal" in="SourceGraphic" in2="BackgroundImageFix" result="shape"/>
<feGaussianBlur stdDeviation="76.5" result="effect1_foregroundBlur_22_28"/>
</filter>
<filter id="filter4_f_22_28" x="0" y="109.741" width="667.241" height="588.81" filterUnits="userSpaceOnUse" color-interpolation-filters="sRGB">
<feFlood flood-opacity="0" result="BackgroundImageFix"/>
<feBlend mode="normal" in="SourceGraphic" in2="BackgroundImageFix" result="shape"/>
<feGaussianBlur stdDeviation="76.5" result="effect1_foregroundBlur_22_28"/>
</filter>
<filter id="filter5_f_22_28" x="849.169" y="288.19" width="667.241" height="588.81" filterUnits="userSpaceOnUse" color-interpolation-filters="sRGB">
<feFlood flood-opacity="0" result="BackgroundImageFix"/>
<feBlend mode="normal" in="SourceGraphic" in2="BackgroundImageFix" result="shape"/>
<feGaussianBlur stdDeviation="76.5" result="effect1_foregroundBlur_22_28"/>
</filter>
<filter id="filter6_f_22_28" x="516.511" y="21.4054" width="708.786" height="868.582" filterUnits="userSpaceOnUse" color-interpolation-filters="sRGB">
<feFlood flood-opacity="0" result="BackgroundImageFix"/>
<feBlend mode="normal" in="SourceGraphic" in2="BackgroundImageFix" result="shape"/>
<feGaussianBlur stdDeviation="94" result="effect1_foregroundBlur_22_28"/>
</filter>
<filter id="filter7_f_22_28" x="193.694" y="171.934" width="749.913" height="759.642" filterUnits="userSpaceOnUse" color-interpolation-filters="sRGB">
<feFlood flood-opacity="0" result="BackgroundImageFix"/>
<feBlend mode="normal" in="SourceGraphic" in2="BackgroundImageFix" result="shape"/>
<feGaussianBlur stdDeviation="106" result="effect1_foregroundBlur_22_28"/>
</filter>
</defs>
</svg>
