<svg width="946" height="763" viewBox="0 0 946 763" fill="none" xmlns="http://www.w3.org/2000/svg">
<g filter="url(#filter0_f_12_14)">
<path d="M579.548 470.08C561.022 485.239 554.039 505.12 558.6 529.722C563.16 554.325 554.467 571.224 532.52 580.419C510.574 589.614 487.773 589.365 464.116 579.673C440.46 569.981 417.516 573.088 395.284 588.992C373.053 604.897 351.819 607.258 331.583 596.075C311.346 584.892 291.537 572.839 272.156 559.916C252.775 546.994 246.505 529.101 253.345 506.238C260.185 483.375 254.77 462.252 237.099 442.868C219.428 423.484 220.14 406.088 239.237 390.681C258.333 375.273 275.006 360.611 289.257 346.694C303.508 332.778 320.039 321.346 338.851 312.4C357.662 303.454 377.898 298.608 399.559 297.862C421.221 297.117 444.877 294.631 470.529 290.407C496.181 286.182 514.279 294.756 524.825 316.128C535.371 337.499 545.346 356.138 554.752 372.042C564.157 387.947 575.273 404.473 588.099 421.62C600.925 438.768 598.075 454.921 579.548 470.08Z" fill="#FF9D9D"/>
</g>
<g filter="url(#filter1_f_12_14)">
<path d="M776.18 311.208C785.893 325.365 780.926 334.948 761.28 339.954C741.634 344.961 726.845 351.177 716.912 358.601C706.978 366.025 695.5 373.104 682.476 379.837C669.452 386.571 653.78 392.872 635.459 398.742C617.137 404.613 599.699 403.922 583.143 396.671C566.588 389.419 553.454 379.664 543.741 367.406C534.029 355.148 532.042 341.767 537.781 327.265C543.52 312.762 542.086 299.727 533.477 288.159C524.868 276.591 522.44 264.419 526.192 251.643C529.945 238.867 538.223 228.076 551.026 219.271C563.828 210.465 576.962 201.401 590.428 192.078C603.893 182.755 618.903 183.704 635.459 194.927C652.014 206.149 666.252 212.969 678.172 215.386C690.092 217.803 708.413 216.681 733.136 212.019C757.859 207.358 770.772 212.969 771.876 228.853C772.979 244.737 771.545 258.894 767.571 271.325C763.598 283.756 766.468 297.05 776.18 311.208Z" fill="#54B0F2"/>
</g>
<g filter="url(#filter2_f_12_14)">
<path d="M500.255 305.584C523.341 329.689 516.786 340.127 480.589 336.896C444.391 333.665 420.022 335.654 407.481 342.86C394.941 350.067 378.98 357.274 359.598 364.481C340.217 371.688 314.138 376.161 281.361 377.9C248.584 379.64 226.21 368.457 214.239 344.351C202.268 320.246 199.846 296.016 206.971 271.662C214.097 247.308 234.19 233.143 267.252 229.167C300.315 225.191 318.556 212.02 321.976 189.654C325.396 167.288 338.507 152.501 361.308 145.294C384.11 138.088 405.914 139.951 426.72 150.886C447.526 161.82 470.185 172.506 494.697 182.944C519.209 193.381 520.491 210.404 498.545 234.013C476.598 257.621 477.168 281.478 500.255 305.584Z" fill="#A154F2"/>
</g>
<g filter="url(#filter3_f_12_14)">
<path d="M234.203 276.396C238.576 290.885 231.675 298.519 213.501 299.299C195.327 300.08 179.954 300.916 167.382 301.807C154.811 302.699 141.761 300.971 128.233 296.625C114.705 292.278 102.065 284.197 90.3132 272.383C78.5615 260.569 75.9652 247.25 82.5243 232.427C89.0834 217.603 100.562 206.569 116.959 199.325C133.357 192.08 148.867 192.136 163.488 199.492C178.109 206.848 192.867 211.752 207.762 214.204C222.656 216.656 229.694 224.012 228.874 236.272C228.054 248.532 229.83 261.906 234.203 276.396Z" fill="#F254CF"/>
</g>
<defs>
<filter id="filter0_f_12_14" x="64.5593" y="129.561" width="691.21" height="633.239" filterUnits="userSpaceOnUse" color-interpolation-filters="sRGB">
<feFlood flood-opacity="0" result="BackgroundImageFix"/>
<feBlend mode="normal" in="SourceGraphic" in2="BackgroundImageFix" result="shape"/>
<feGaussianBlur stdDeviation="79.9" result="effect1_foregroundBlur_12_14"/>
</filter>
<filter id="filter1_f_12_14" x="359.984" y="21.2319" width="585.516" height="545.95" filterUnits="userSpaceOnUse" color-interpolation-filters="sRGB">
<feFlood flood-opacity="0" result="BackgroundImageFix"/>
<feBlend mode="normal" in="SourceGraphic" in2="BackgroundImageFix" result="shape"/>
<feGaussianBlur stdDeviation="82.25" result="effect1_foregroundBlur_12_14"/>
</filter>
<filter id="filter2_f_12_14" x="62.3829" y="0.399994" width="592.313" height="518.276" filterUnits="userSpaceOnUse" color-interpolation-filters="sRGB">
<feFlood flood-opacity="0" result="BackgroundImageFix"/>
<feBlend mode="normal" in="SourceGraphic" in2="BackgroundImageFix" result="shape"/>
<feGaussianBlur stdDeviation="70.3" result="effect1_foregroundBlur_12_14"/>
</filter>
<filter id="filter3_f_12_14" x="0.300003" y="115.233" width="313.875" height="265.502" filterUnits="userSpaceOnUse" color-interpolation-filters="sRGB">
<feFlood flood-opacity="0" result="BackgroundImageFix"/>
<feBlend mode="normal" in="SourceGraphic" in2="BackgroundImageFix" result="shape"/>
<feGaussianBlur stdDeviation="39.35" result="effect1_foregroundBlur_12_14"/>
</filter>
</defs>
</svg>
