<svg width="681" height="573" viewBox="0 0 681 573" fill="none" xmlns="http://www.w3.org/2000/svg">
<g filter="url(#filter0_f_12_14)">
<path d="M390.595 334.744C379.062 343.669 374.715 355.374 377.554 369.858C380.393 384.343 374.982 394.292 361.32 399.705C347.658 405.119 333.464 404.972 318.737 399.266C304.011 393.56 289.728 395.389 275.889 404.753C262.05 414.117 248.832 415.507 236.234 408.923C223.637 402.339 211.306 395.243 199.241 387.635C187.176 380.027 183.273 369.492 187.531 356.032C191.789 342.572 188.418 330.135 177.418 318.723C166.417 307.311 166.861 297.069 178.748 287.998C190.636 278.927 201.015 270.295 209.887 262.101C218.758 253.908 229.049 247.178 240.759 241.911C252.469 236.644 265.066 233.791 278.551 233.352C292.035 232.913 306.761 231.45 322.73 228.962C338.698 226.475 349.964 231.523 356.529 244.105C363.094 256.688 369.304 267.661 375.159 277.025C381.014 286.389 387.934 296.118 395.918 306.214C403.902 316.309 402.128 325.819 390.595 334.744Z" fill="#FF9D9D"/>
</g>
<g filter="url(#filter1_f_12_14)">
<path d="M513 241.209C519.046 249.544 515.954 255.186 503.724 258.133C491.495 261.081 482.288 264.74 476.104 269.111C469.921 273.482 462.776 277.65 454.668 281.614C446.561 285.578 436.805 289.288 425.399 292.744C413.994 296.201 403.139 295.794 392.833 291.525C382.527 287.256 374.351 281.512 368.305 274.295C362.259 267.078 361.022 259.201 364.595 250.662C368.167 242.124 367.274 234.449 361.915 227.639C356.556 220.829 355.044 213.662 357.38 206.14C359.716 198.618 364.869 192.265 372.839 187.081C380.809 181.897 388.985 176.561 397.367 171.072C405.749 165.583 415.093 166.142 425.399 172.749C435.705 179.356 444.568 183.371 451.989 184.794C459.409 186.217 470.814 185.557 486.204 182.812C501.594 180.068 509.633 183.371 510.32 192.723C511.007 202.074 510.114 210.41 507.641 217.728C505.167 225.047 506.954 232.874 513 241.209Z" fill="#54B0F2"/>
</g>
<g filter="url(#filter2_f_12_14)">
<path d="M341.234 237.898C355.606 252.09 351.525 258.235 328.992 256.333C306.459 254.431 291.289 255.601 283.482 259.844C275.675 264.087 265.739 268.33 253.674 272.573C241.61 276.816 225.375 279.45 204.971 280.474C184.567 281.498 170.639 274.914 163.187 260.722C155.735 246.53 154.227 232.265 158.663 217.927C163.099 203.588 175.607 195.249 196.188 192.908C216.77 190.567 228.125 182.812 230.254 169.645C232.383 156.477 240.545 147.771 254.739 143.528C268.933 139.285 282.506 140.383 295.458 146.82C308.41 153.258 322.516 159.549 337.774 165.694C353.033 171.839 353.831 181.861 340.17 195.761C326.508 209.66 326.863 223.706 341.234 237.898Z" fill="#A154F2"/>
</g>
<g filter="url(#filter3_f_12_14)">
<path d="M175.615 220.713C178.337 229.244 174.041 233.739 162.728 234.198C151.414 234.657 141.845 235.149 134.019 235.674C126.193 236.199 118.069 235.182 109.648 232.623C101.226 230.064 93.358 225.307 86.0425 218.351C78.727 211.396 77.1108 203.554 81.1939 194.827C85.277 186.1 92.4223 179.604 102.63 175.338C112.838 171.073 122.492 171.106 131.594 175.437C140.696 179.768 149.883 182.655 159.155 184.098C168.427 185.542 172.808 189.873 172.297 197.091C171.787 204.309 172.893 212.183 175.615 220.713Z" fill="#F254CF"/>
</g>
<defs>
<filter id="filter0_f_12_14" x="9.68721" y="68.5466" width="550.93" height="504.253" filterUnits="userSpaceOnUse" color-interpolation-filters="sRGB">
<feFlood flood-opacity="0" result="BackgroundImageFix"/>
<feBlend mode="normal" in="SourceGraphic" in2="BackgroundImageFix" result="shape"/>
<feGaussianBlur stdDeviation="79.9" result="effect1_foregroundBlur_12_14"/>
</filter>
<filter id="filter1_f_12_14" x="191.817" y="2.83566" width="488.683" height="456.728" filterUnits="userSpaceOnUse" color-interpolation-filters="sRGB">
<feFlood flood-opacity="0" result="BackgroundImageFix"/>
<feBlend mode="normal" in="SourceGraphic" in2="BackgroundImageFix" result="shape"/>
<feGaussianBlur stdDeviation="82.25" result="effect1_foregroundBlur_12_14"/>
</filter>
<filter id="filter2_f_12_14" x="15.5803" y="0.399994" width="474.87" height="420.777" filterUnits="userSpaceOnUse" color-interpolation-filters="sRGB">
<feFlood flood-opacity="0" result="BackgroundImageFix"/>
<feBlend mode="normal" in="SourceGraphic" in2="BackgroundImageFix" result="shape"/>
<feGaussianBlur stdDeviation="70.3" result="effect1_foregroundBlur_12_14"/>
</filter>
<filter id="filter3_f_12_14" x="0.300003" y="93.4639" width="254.807" height="221.045" filterUnits="userSpaceOnUse" color-interpolation-filters="sRGB">
<feFlood flood-opacity="0" result="BackgroundImageFix"/>
<feBlend mode="normal" in="SourceGraphic" in2="BackgroundImageFix" result="shape"/>
<feGaussianBlur stdDeviation="39.35" result="effect1_foregroundBlur_12_14"/>
</filter>
</defs>
</svg>
