<svg width="2880" height="1541" viewBox="0 0 2880 1541" fill="none" xmlns="http://www.w3.org/2000/svg">
<rect width="2880" height="1541" fill="white"/>
<path d="M1299.18 670.182C1298.64 665.576 1296.42 662 1292.55 659.455C1288.67 656.909 1283.91 655.636 1278.27 655.636C1274.15 655.636 1270.55 656.303 1267.45 657.636C1264.39 658.97 1262 660.803 1260.27 663.136C1258.58 665.47 1257.73 668.121 1257.73 671.091C1257.73 673.576 1258.32 675.712 1259.5 677.5C1260.71 679.258 1262.26 680.727 1264.14 681.909C1266.02 683.061 1267.98 684.015 1270.05 684.773C1272.11 685.5 1274 686.091 1275.73 686.545L1285.18 689.091C1287.61 689.727 1290.3 690.606 1293.27 691.727C1296.27 692.848 1299.14 694.379 1301.86 696.318C1304.62 698.227 1306.89 700.682 1308.68 703.682C1310.47 706.682 1311.36 710.364 1311.36 714.727C1311.36 719.758 1310.05 724.303 1307.41 728.364C1304.8 732.424 1300.98 735.652 1295.95 738.045C1290.95 740.439 1284.88 741.636 1277.73 741.636C1271.06 741.636 1265.29 740.561 1260.41 738.409C1255.56 736.258 1251.74 733.258 1248.95 729.409C1246.2 725.561 1244.64 721.091 1244.27 716H1255.91C1256.21 719.515 1257.39 722.424 1259.45 724.727C1261.55 727 1264.18 728.697 1267.36 729.818C1270.58 730.909 1274.03 731.455 1277.73 731.455C1282.03 731.455 1285.89 730.758 1289.32 729.364C1292.74 727.939 1295.45 725.97 1297.45 723.455C1299.45 720.909 1300.45 717.939 1300.45 714.545C1300.45 711.455 1299.59 708.939 1297.86 707C1296.14 705.061 1293.86 703.485 1291.05 702.273C1288.23 701.061 1285.18 700 1281.91 699.091L1270.45 695.818C1263.18 693.727 1257.42 690.742 1253.18 686.864C1248.94 682.985 1246.82 677.909 1246.82 671.636C1246.82 666.424 1248.23 661.879 1251.05 658C1253.89 654.091 1257.71 651.061 1262.5 648.909C1267.32 646.727 1272.7 645.636 1278.64 645.636C1284.64 645.636 1289.97 646.712 1294.64 648.864C1299.3 650.985 1303 653.894 1305.73 657.591C1308.48 661.288 1309.94 665.485 1310.09 670.182H1299.18ZM1408.44 693.455C1408.44 703.273 1406.67 711.758 1403.12 718.909C1399.58 726.061 1394.72 731.576 1388.53 735.455C1382.35 739.333 1375.29 741.273 1367.35 741.273C1359.41 741.273 1352.35 739.333 1346.17 735.455C1339.99 731.576 1335.13 726.061 1331.58 718.909C1328.03 711.758 1326.26 703.273 1326.26 693.455C1326.26 683.636 1328.03 675.152 1331.58 668C1335.13 660.848 1339.99 655.333 1346.17 651.455C1352.35 647.576 1359.41 645.636 1367.35 645.636C1375.29 645.636 1382.35 647.576 1388.53 651.455C1394.72 655.333 1399.58 660.848 1403.12 668C1406.67 675.152 1408.44 683.636 1408.44 693.455ZM1397.53 693.455C1397.53 685.394 1396.19 678.591 1393.49 673.045C1390.82 667.5 1387.2 663.303 1382.62 660.455C1378.08 657.606 1372.99 656.182 1367.35 656.182C1361.72 656.182 1356.61 657.606 1352.03 660.455C1347.49 663.303 1343.87 667.5 1341.17 673.045C1338.5 678.591 1337.17 685.394 1337.17 693.455C1337.17 701.515 1338.5 708.318 1341.17 713.864C1343.87 719.409 1347.49 723.606 1352.03 726.455C1356.61 729.303 1361.72 730.727 1367.35 730.727C1372.99 730.727 1378.08 729.303 1382.62 726.455C1387.2 723.606 1390.82 719.409 1393.49 713.864C1396.19 708.318 1397.53 701.515 1397.53 693.455ZM1505.94 693.455C1505.94 703.273 1504.17 711.758 1500.62 718.909C1497.08 726.061 1492.22 731.576 1486.03 735.455C1479.85 739.333 1472.79 741.273 1464.85 741.273C1456.91 741.273 1449.85 739.333 1443.67 735.455C1437.49 731.576 1432.63 726.061 1429.08 718.909C1425.53 711.758 1423.76 703.273 1423.76 693.455C1423.76 683.636 1425.53 675.152 1429.08 668C1432.63 660.848 1437.49 655.333 1443.67 651.455C1449.85 647.576 1456.91 645.636 1464.85 645.636C1472.79 645.636 1479.85 647.576 1486.03 651.455C1492.22 655.333 1497.08 660.848 1500.62 668C1504.17 675.152 1505.94 683.636 1505.94 693.455ZM1495.03 693.455C1495.03 685.394 1493.69 678.591 1490.99 673.045C1488.32 667.5 1484.7 663.303 1480.12 660.455C1475.58 657.606 1470.49 656.182 1464.85 656.182C1459.22 656.182 1454.11 657.606 1449.53 660.455C1444.99 663.303 1441.37 667.5 1438.67 673.045C1436 678.591 1434.67 685.394 1434.67 693.455C1434.67 701.515 1436 708.318 1438.67 713.864C1441.37 719.409 1444.99 723.606 1449.53 726.455C1454.11 729.303 1459.22 730.727 1464.85 730.727C1470.49 730.727 1475.58 729.303 1480.12 726.455C1484.7 723.606 1488.32 719.409 1490.99 713.864C1493.69 708.318 1495.03 701.515 1495.03 693.455ZM1598.72 646.909V740H1587.81L1537.08 666.909H1536.17V740H1524.9V646.909H1535.81L1586.72 720.182H1587.62V646.909H1598.72Z" fill="black"/>
</svg>
