<svg width="179" height="136" viewBox="0 0 179 136" fill="none" xmlns="http://www.w3.org/2000/svg">
<path d="M168.592 4.43898e-06C174.041 11.0699 177.256 23.1047 178.054 35.4171C178.852 47.7296 177.217 60.0787 173.242 71.7592C169.268 83.4398 163.031 94.2232 154.889 103.494C146.747 112.764 136.859 120.34 125.789 125.789C114.719 131.238 102.684 134.453 90.3718 135.251C78.0594 136.049 65.7103 134.414 54.0297 130.439C42.3491 126.465 31.5658 120.228 22.2953 112.086C13.0249 103.944 5.44894 94.056 0 82.9861L27.6899 69.3563C31.3489 76.7899 36.4363 83.43 42.6615 88.8975C48.8868 94.365 56.128 98.5528 63.9717 101.222C71.8154 103.891 80.108 104.989 88.376 104.453C96.644 103.917 104.726 101.758 112.159 98.0991C119.593 94.44 126.233 89.3527 131.7 83.1274C137.168 76.9022 141.356 69.661 144.025 61.8173C146.694 53.9736 147.792 45.681 147.256 37.413C146.72 29.1449 144.561 21.0634 140.902 13.6298L168.592 4.43898e-06Z" fill="#F2DA05"/>
</svg>
