<svg width="77" height="22" viewBox="0 0 77 22" fill="none" xmlns="http://www.w3.org/2000/svg">
<path d="M75.7876 4.03198C72.0542 4.88253 70.9078 -0.149462 67.1744 0.701085C63.4411 1.55163 64.5875 6.58362 60.8541 7.43417C57.1207 8.28472 55.9743 3.25272 52.2497 4.10128C48.5162 4.95185 49.6626 9.98384 45.9381 10.8324C42.2046 11.6829 41.0582 6.65094 37.3337 7.49947C33.6003 8.35004 34.7467 13.382 31.0135 14.2325C27.28 15.0831 26.1336 10.0511 22.4002 10.9017C18.667 11.7522 19.8134 16.7842 16.08 17.6347C12.3465 18.4853 11.2001 13.4533 7.46664 14.3039C3.73346 15.1544 4.87986 20.1864 1.1464 21.0369" stroke="#2F80ED" stroke-width="0.860155" stroke-miterlimit="10" stroke-linecap="round"/>
</svg>
